<svg xmlns="http://www.w3.org/2000/svg" xmlns:xlink="http://www.w3.org/1999/xlink" width="450" height="303"><defs><path id="a" d="M0 0h448v304H0z"/><path id="d" d="M23 313V61C23 32.281 46.281 9 75 9h298c28.719 0 52 23.281 52 52v252"/><filter id="c" width="106.5%" height="108.6%" x="-3.2%" y="-3.6%" filterUnits="objectBoundingBox"><feOffset dy="2" in="SourceAlpha" result="shadowOffsetOuter1"/><feGaussianBlur in="shadowOffsetOuter1" result="shadowBlurOuter1" stdDeviation="4"/><feColorMatrix in="shadowBlurOuter1" values="0 0 0 0 0.125490196 0 0 0 0 0.0705882353 0 0 0 0 0.22745098 0 0 0 0.24 0"/></filter><path id="e" d="M16.545 9.33L13.17 5.955a1.125 1.125 0 0 0-.795-.33H11.25V4.5c0-.298-.119-.584-.33-.795L7.545.33A1.125 1.125 0 0 0 6.75 0H3.375a2.25 2.25 0 0 0-2.25 2.25v7.875a2.25 2.25 0 0 0 2.25 2.25H6.75v3.375A2.25 2.25 0 0 0 9 18h5.625a2.25 2.25 0 0 0 2.25-2.25v-5.625c0-.298-.119-.584-.33-.795zm-2.386.795h-1.784V8.341l1.784 1.784zM8.534 4.5H6.75V2.716L8.534 4.5zM6.75 7.875v2.25H3.375V2.25h2.25v2.813c0 .31.252.562.563.562H9a2.25 2.25 0 0 0-2.25 2.25zM9 15.75V7.875h2.25v2.813c0 .31.252.562.563.562h2.812v4.5H9z"/><path id="g" d="M16.545 9.33L13.17 5.955a1.125 1.125 0 0 0-.795-.33H11.25V4.5c0-.298-.119-.584-.33-.795L7.545.33A1.125 1.125 0 0 0 6.75 0H3.375a2.25 2.25 0 0 0-2.25 2.25v7.875a2.25 2.25 0 0 0 2.25 2.25H6.75v3.375A2.25 2.25 0 0 0 9 18h5.625a2.25 2.25 0 0 0 2.25-2.25v-5.625c0-.298-.119-.584-.33-.795zm-2.386.795h-1.784V8.341l1.784 1.784zM8.534 4.5H6.75V2.716L8.534 4.5zM6.75 7.875v2.25H3.375V2.25h2.25v2.813c0 .31.252.562.563.562H9a2.25 2.25 0 0 0-2.25 2.25zM9 15.75V7.875h2.25v2.813c0 .31.252.562.563.562h2.812v4.5H9z"/><path id="i" d="M17.95 8.662A9.366 9.366 0 0 0 9 2.25 9.366 9.366 0 0 0 .05 8.662c-.067.218-.067.451 0 .669A9.366 9.366 0 0 0 9 15.75a9.366 9.366 0 0 0 8.95-6.412c.069-.22.069-.456 0-.675zM9.563 5.625a1.687 1.687 0 1 1 0 3.375 1.687 1.687 0 0 1 0-3.375zM9 13.5A7.122 7.122 0 0 1 2.314 9a6.819 6.819 0 0 1 2.813-3.375 4.45 4.45 0 0 0-.627 2.25 4.5 4.5 0 0 0 9 0 4.45 4.45 0 0 0-.624-2.25A6.819 6.819 0 0 1 15.688 9 7.122 7.122 0 0 1 9 13.5z"/><path id="l" d="M16 0h330v1H16z"/><filter id="k" width="100.2%" height="150%" x="-.1%" y="-25%" filterUnits="objectBoundingBox"><feOffset dy="-.5" in="SourceAlpha" result="shadowOffsetInner1"/><feComposite in="shadowOffsetInner1" in2="SourceAlpha" k2="-1" k3="1" operator="arithmetic" result="shadowInnerInner1"/><feColorMatrix in="shadowInnerInner1" values="0 0 0 0 0 0 0 0 0 0 0 0 0 0 0 0 0 0 0.25 0"/></filter><path id="m" d="M5.625 1.125a1.125 1.125 0 0 1 0 2.25H4.5c-.621 0-1.125.504-1.125 1.125v9c0 .621.504 1.125 1.125 1.125h9c.621 0 1.125-.504 1.125-1.125v-1.125a1.125 1.125 0 0 1 2.25 0V13.5a3.375 3.375 0 0 1-3.375 3.375h-9A3.375 3.375 0 0 1 1.125 13.5v-9A3.375 3.375 0 0 1 4.5 1.125zm10.139 0a1.125 1.125 0 0 1 1.125 1.125v5.625a1.125 1.125 0 0 1-2.25 0v-2.91L10.934 8.67a1.125 1.125 0 1 1-1.59-1.59l3.704-3.705h-2.91a1.125 1.125 0 0 1 0-2.25z"/><path id="p" d="M16 0h330v2H16z"/><filter id="o" width="100.2%" height="125%" x="-.1%" y="-12.5%" filterUnits="objectBoundingBox"><feOffset dy="-.5" in="SourceAlpha" result="shadowOffsetInner1"/><feComposite in="shadowOffsetInner1" in2="SourceAlpha" k2="-1" k3="1" operator="arithmetic" result="shadowInnerInner1"/><feColorMatrix in="shadowInnerInner1" values="0 0 0 0 0 0 0 0 0 0 0 0 0 0 0 0 0 0 0.25 0"/></filter></defs><g fill="none" fill-rule="evenodd" transform="translate(1 -3)"><mask id="b" fill="#fff"><use xlink:href="#a"/></mask><g mask="url(#b)"><use fill="#000" filter="url(#c)" xlink:href="#d"/><use fill="#FFF" xlink:href="#d"/></g><path stroke="#EDEDF0" stroke-linecap="square" stroke-width="2" d="M0 304.5h448"/><g transform="translate(51 96)"><path fill="#FFF" stroke="#D5D5D5" stroke-width=".8" d="M4-.4h339a4.4 4.4 0 0 1 4.4 4.4v204.4H-.4V4A4.4 4.4 0 0 1 4-.4z"/><path fill="#FFF" d="M0 84h347v124H0z"/><g transform="translate(305 106)"><path d="M0 0h18v18H0z"/><mask id="f" fill="#fff"><use xlink:href="#e"/></mask><use fill="#000" fill-rule="nonzero" xlink:href="#e"/><g fill="#4A4A4F" mask="url(#f)"><path d="M0 0h18v18H0z"/></g></g><text fill="#20123A" font-family="Helvetica" font-size="16" letter-spacing="-.178" transform="translate(16 159)"><tspan x="0" y="29">•••••••••••••</tspan></text><g transform="translate(305 169)"><path d="M0 0h18v18H0z"/><mask id="h" fill="#fff"><use xlink:href="#g"/></mask><use fill="#000" fill-rule="nonzero" xlink:href="#g"/><g fill="#4A4A4F" mask="url(#h)"><path d="M0 0h18v18H0z"/></g></g><g transform="translate(263 169)"><path d="M0 0h18v18H0z"/><mask id="j" fill="#fff"><use xlink:href="#i"/></mask><g fill="#4A4A4F" mask="url(#j)"><path d="M0 0h18v18H0z"/></g></g><text fill="#5B5B66" font-family="Helvetica" font-size="13" letter-spacing="-.2" transform="translate(16 159)"><tspan x="0" y="13">Password</tspan></text><g transform="translate(1 96)"><use fill="#000" filter="url(#k)" transform="translate(0 50)" xlink:href="#l"/><text fill="#20123A" font-family="Helvetica" font-size="17"><tspan x="15" y="31">asadotzler</tspan></text><text fill="#5B5B66" font-family="Helvetica" font-size="13" letter-spacing="-.2"><tspan x="15" y="13">Username</tspan></text></g><g><path fill="#FFF" d="M0 22h347v62H0z"/><g transform="translate(305 44)"><path d="M0 0h18v18H0z"/><mask id="n" fill="#fff"><use xlink:href="#m"/></mask><use fill="#000" fill-rule="nonzero" xlink:href="#m"/><g fill="#4A4A4F" mask="url(#n)"><path d="M0 0h18v18H0z"/></g></g><text fill="#592ACB" font-family="Helvetica" font-size="17" transform="translate(0 22)"><tspan x="16" y="43">https://twitter.com</tspan></text><text fill="#5B5B66" font-family="Helvetica" font-size="13" letter-spacing="-.2" transform="translate(0 22)"><tspan x="16" y="25">Web Address</tspan></text></g><use fill="#000" filter="url(#o)" transform="translate(1 82)" xlink:href="#p"/></g><path fill="#B933E1" d="M224.5 74a9.5 9.5 0 0 1 9.5 9.5v4c0 .168-.004.335-.013.5H235a4 4 0 0 1 4 4v12a4 4 0 0 1-4 4h-21a4 4 0 0 1-4-4V92a4 4 0 0 1 4-4h1.013a9.655 9.655 0 0 1-.013-.5v-4a9.5 9.5 0 0 1 9.5-9.5zm0 5a4.5 4.5 0 0 0-4.495 4.288L220 83.5V88h9v-4.5a4.5 4.5 0 0 0-4.5-4.5z"/></g></svg>