<svg xmlns="http://www.w3.org/2000/svg" xmlns:xlink="http://www.w3.org/1999/xlink" width="468" height="330"><defs><rect id="b" width="444" height="305.93" y=".323" rx="3.118"/><filter id="a" width="109%" height="113.1%" x="-4.5%" y="-5.2%" filterUnits="objectBoundingBox"><feOffset dy="4" in="SourceAlpha" result="shadowOffsetOuter1"/><feGaussianBlur in="shadowOffsetOuter1" result="shadowBlurOuter1" stdDeviation="6"/><feColorMatrix in="shadowBlurOuter1" values="0 0 0 0 0.125490196 0 0 0 0 0.0705882353 0 0 0 0 0.22745098 0 0 0 0.24 0"/></filter></defs><g fill="none" fill-rule="evenodd" transform="translate(12 8)"><use fill="#000" filter="url(#a)" xlink:href="#b"/><use fill="#FFF" xlink:href="#b"/><text fill="#20123A" font-family="Inter-Regular, Inter" font-size="13.098" transform="translate(35.36 124.493)"><tspan x="4.492" y="143.44">Mon</tspan></text><path fill="#338FF8" d="M42.865 216.076h19.258v28.08a1.871 1.871 0 0 1-1.872 1.871H44.736a1.871 1.871 0 0 1-1.871-1.87v-28.08z"/><path fill="#4BC3A1" d="M42.865 127.292h19.258v88.784H42.865z"/><path fill="#F9BD3F" d="M44.736 125.153H60.25c1.034 0 1.872.838 1.872 1.87v.27H42.865v-.27c0-1.032.837-1.87 1.87-1.87z"/><text fill="#20123A" font-family="Inter-Regular, Inter" font-size="13.098" transform="translate(103.972 180.534)"><tspan x="4.584" y="87.399">Tue</tspan></text><path fill="#338FF8" d="M111.337 221.425h19.258v21.662a1.871 1.871 0 0 1-1.871 1.87h-15.516a1.871 1.871 0 0 1-1.871-1.87v-21.662z"/><path fill="#4BC3A1" d="M113.208 180.777h15.516c1.033 0 1.87.837 1.87 1.87v38.778h-19.257v-38.777c0-1.034.838-1.871 1.871-1.871z"/><text fill="#20123A" font-family="Inter-Regular, Inter" font-size="13.098" transform="translate(172.305 92.469)"><tspan x="3.91" y="175.464">Wed</tspan></text><path fill="#338FF8" d="M178.74 205.38h18.188v37.706a1.871 1.871 0 0 1-1.871 1.872H180.61a1.871 1.871 0 0 1-1.871-1.872V205.38z"/><path fill="#4BC3A1" d="M178.74 97.341h18.188v108.038H178.74z"/><path fill="#F9BD3F" d="M180.611 93.062h14.446c1.033 0 1.87.838 1.87 1.871v2.408H178.74v-2.408c0-1.033.838-1.87 1.871-1.87z"/><g><text fill="#20123A" font-family="Inter-Regular, Inter" font-size="13.098" transform="translate(318.878 92.469)"><tspan x="2.384" y="175.464">Fri</tspan></text><path fill="#338FF8" d="M319.963 205.38h19.258v37.706a1.871 1.871 0 0 1-1.87 1.872h-15.516a1.871 1.871 0 0 1-1.872-1.872V205.38z"/><path fill="#4BC3A1" d="M319.963 97.341h19.258v108.038h-19.258z"/><path fill="#F9BD3F" d="M321.835 93.062h15.515c1.034 0 1.871.838 1.871 1.871v2.408h-19.258v-2.408c0-1.033.838-1.87 1.872-1.87z"/></g><g><text fill="#20123A" font-family="Inter-Regular, Inter" font-size="13.098" transform="translate(240.793 133.71)"><tspan x="3.909" y="134.645">Thu</tspan></text><path fill="#4BC3A1" d="M245.588 144.718h18.577v89.066h-18.577z"/><path fill="#F9BD3F" d="M247.459 133.71h14.835c1.033 0 1.87.838 1.87 1.871v9.137h-18.576v-9.137c0-1.033.837-1.871 1.87-1.871z"/><path fill="#338FF8" d="M246.142 233.191h18.188v9.896a1.871 1.871 0 0 1-1.871 1.87h-14.446a1.871 1.871 0 0 1-1.87-1.87v-9.896z"/></g><g><text fill="#20123A" font-family="Inter-Regular, Inter" font-size="13.098" transform="translate(380.001 148.51)"><tspan x="4.603" y="119.423">Sat</tspan></text><path fill="#338FF8" d="M385.226 221.424h19.258v21.662a1.871 1.871 0 0 1-1.871 1.872h-15.516a1.871 1.871 0 0 1-1.87-1.872v-21.662z"/><path fill="#4BC3A1" d="M385.226 155.104h19.258v66.321h-19.258z"/><path fill="#F9BD3F" d="M387.097 148.686h15.516c1.033 0 1.871.838 1.871 1.87v5.618h-19.258v-5.617c0-1.033.838-1.871 1.871-1.871z"/></g><text fill="#20123A" font-family="Inter-Medium, Inter" font-size="13.098" font-weight="400" transform="translate(35.36 33.667)"><tspan x="128.979" y="23.792"> 2000+ trackers blocked</tspan></text><g><path fill="#FFF" d="M148.966 50.318c-.552 6.1-1.587 9.235-4.26 12.9a13.47 13.47 0 0 1-8.225 5.17 13.478 13.478 0 0 1-8.224-5.17c-2.68-3.665-3.709-6.8-4.26-12.9-.209-2.298-.209-7.863-.209-10.148a.994.994 0 0 1 .794-.997l11.899-2.054 11.897 2.06c.47.091.806.513.794.996.001 2.28.001 7.844-.208 10.143h.002z"/><path fill="#592ACB" fill-rule="nonzero" d="M151.994 40.162c.01-1.866-1.318-3.467-3.14-3.788l-12.373-2.144-12.373 2.143c-1.822.321-3.149 1.922-3.14 3.788-.009 2.89.01 8.084.218 10.415.6 6.617 1.808 10.233 4.795 14.33a16.055 16.055 0 0 0 10.337 6.334l.158.018.158-.018a16.055 16.055 0 0 0 10.338-6.335c2.99-4.096 4.198-7.712 4.794-14.33.216-2.33.235-7.524.228-10.413zm-3.028 10.156c-.552 6.1-1.587 9.235-4.26 12.9a13.47 13.47 0 0 1-8.225 5.17 13.478 13.478 0 0 1-8.224-5.17c-2.68-3.665-3.709-6.8-4.26-12.9-.209-2.298-.209-7.863-.209-10.148a.994.994 0 0 1 .794-.997l11.899-2.054 11.897 2.06c.47.091.806.513.794.996.001 2.28.001 7.844-.208 10.143h.002z"/><path fill="#592ACB" fill-rule="nonzero" d="M128.195 49.683c.698 7.385 2.006 9.573 4.077 12.287a9.69 9.69 0 0 0 4.709 3.283V41.235l-9.009 1.492c.032 3.278.11 5.761.223 6.956z"/></g></g></svg>