<svg xmlns="http://www.w3.org/2000/svg" xmlns:xlink="http://www.w3.org/1999/xlink" width="418" height="311" viewBox="0 0 418 311">
  <defs>
    <path id="img-lockwise-b" d="M0,295 L0,52 C-3.51703951e-15,23.281193 23.281193,5.27555926e-15 52,0 L350,0 C378.718807,-5.27555926e-15 402,23.281193 402,52 L402,295 L402,295"/>
    <filter id="img-lockwise-a" width="106.5%" height="108.8%" x="-3.2%" y="-3.7%" filterUnits="objectBoundingBox">
      <feOffset dy="2" in="SourceAlpha" result="shadowOffsetOuter1"/>
      <feGaussianBlur in="shadowOffsetOuter1" result="shadowBlurOuter1" stdDeviation="4"/>
      <feColorMatrix in="shadowBlurOuter1" values="0 0 0 0 0.125490196   0 0 0 0 0.0705882353   0 0 0 0 0.22745098  0 0 0 0.24 0"/>
    </filter>
    <path id="img-lockwise-c" d="M16.545375,9.329625 L13.170375,5.954625 C12.9594457,5.74363195 12.6733442,5.62506372 12.375,5.625 L11.25,5.625 L11.25,4.5 C11.2499363,4.20165583 11.131368,3.91555432 10.920375,3.704625 L7.545375,0.329625 C7.33444568,0.118631953 7.04834417,0 6.75,0 L3.375,0 C2.13235931,0 1.125,1.00735931 1.125,2.25 L1.125,10.125 C1.125,11.3676407 2.13235931,12.375 3.375,12.375 L6.75,12.375 L6.75,15.75 C6.75,16.9926407 7.75735931,18 9,18 L14.625,18 C15.8676407,18 16.875,16.9926407 16.875,15.75 L16.875,10.125 C16.875,9.82665583 16.756368,9.54055432 16.545375,9.329625 Z M14.15925,10.125 L12.375,10.125 L12.375,8.34075 L14.15925,10.125 Z M8.53425,4.5 L6.75,4.5 L6.75,2.71575 L8.53425,4.5 Z M6.75,7.875 L6.75,10.125 L3.375,10.125 L3.375,2.25 L5.625,2.25 L5.625,5.0625 C5.625,5.37316017 5.87683983,5.625 6.1875,5.625 L9,5.625 C7.75735931,5.625 6.75,6.63235931 6.75,7.875 Z M9,15.75 L9,7.875 L11.25,7.875 L11.25,10.6875 C11.25,10.9981602 11.5018398,11.25 11.8125,11.25 L14.625,11.25 L14.625,15.75 L9,15.75 Z"/>
    <path id="img-lockwise-e" d="M16.545375,9.329625 L13.170375,5.954625 C12.9594457,5.74363195 12.6733442,5.62506372 12.375,5.625 L11.25,5.625 L11.25,4.5 C11.2499363,4.20165583 11.131368,3.91555432 10.920375,3.704625 L7.545375,0.329625 C7.33444568,0.118631953 7.04834417,0 6.75,0 L3.375,0 C2.13235931,0 1.125,1.00735931 1.125,2.25 L1.125,10.125 C1.125,11.3676407 2.13235931,12.375 3.375,12.375 L6.75,12.375 L6.75,15.75 C6.75,16.9926407 7.75735931,18 9,18 L14.625,18 C15.8676407,18 16.875,16.9926407 16.875,15.75 L16.875,10.125 C16.875,9.82665583 16.756368,9.54055432 16.545375,9.329625 Z M14.15925,10.125 L12.375,10.125 L12.375,8.34075 L14.15925,10.125 Z M8.53425,4.5 L6.75,4.5 L6.75,2.71575 L8.53425,4.5 Z M6.75,7.875 L6.75,10.125 L3.375,10.125 L3.375,2.25 L5.625,2.25 L5.625,5.0625 C5.625,5.37316017 5.87683983,5.625 6.1875,5.625 L9,5.625 C7.75735931,5.625 6.75,6.63235931 6.75,7.875 Z M9,15.75 L9,7.875 L11.25,7.875 L11.25,10.6875 C11.25,10.9981602 11.5018398,11.25 11.8125,11.25 L14.625,11.25 L14.625,15.75 L9,15.75 Z"/>
    <path id="img-lockwise-g" d="M17.9495128,8.6625 C16.6702783,4.81216726 13.0573283,2.22337841 9.00013784,2.25 C4.94294738,2.22337841 1.32999732,4.81216726 0.0507628361,8.6625 C-0.0169209454,8.88010848 -0.0169209454,9.11314152 0.0507628361,9.33075 C1.32764302,13.1837517 4.94114947,15.7756647 9.00013784,15.75 C13.0573283,15.7766216 16.6702783,13.1878327 17.9495128,9.3375 C18.018604,9.11780399 18.018604,8.88219601 17.9495128,8.6625 Z M9.56263784,5.625 C10.4946184,5.625 11.2501378,6.38051948 11.2501378,7.3125 C11.2501378,8.24448052 10.4946184,9 9.56263784,9 C8.63065732,9 7.87513784,8.24448052 7.87513784,7.3125 C7.87513784,6.38051948 8.63065732,5.625 9.56263784,5.625 Z M9.00013784,13.5 C6.05554876,13.5263468 3.39835155,11.7378916 2.31426284,9 C2.85374236,7.59552083 3.84259111,6.40890234 5.12676284,5.625 C4.72125214,6.30581733 4.50492353,7.08258075 4.50013784,7.875 C4.50013787,10.3602813 6.51485649,12.3749999 9.00013784,12.3749999 C11.4854192,12.3749999 13.5001378,10.3602813 13.5001378,7.875 C13.4960332,7.08278883 13.2804853,6.30603972 12.8757628,5.625 C14.1599346,6.40890234 15.1487833,7.59552083 15.6882628,9 C14.603878,11.7386641 11.9455457,13.5272813 9.00013784,13.5 Z"/>
    <rect id="img-lockwise-j" width="330" height="1" x="16" y="0"/>
    <filter id="img-lockwise-i" width="100.2%" height="150%" x="-.1%" y="-25%" filterUnits="objectBoundingBox">
      <feOffset dy="-.5" in="SourceAlpha" result="shadowOffsetInner1"/>
      <feComposite in="shadowOffsetInner1" in2="SourceAlpha" k2="-1" k3="1" operator="arithmetic" result="shadowInnerInner1"/>
      <feColorMatrix in="shadowInnerInner1" values="0 0 0 0 0   0 0 0 0 0   0 0 0 0 0  0 0 0 0.25 0"/>
    </filter>
    <path id="img-lockwise-k" d="M5.625,1.125 C6.24632034,1.125 6.75,1.62867966 6.75,2.25 C6.75,2.87132034 6.24632034,3.375 5.625,3.375 L5.625,3.375 L4.5,3.375 C3.87867966,3.375 3.375,3.87867966 3.375,4.5 L3.375,4.5 L3.375,13.5 C3.375,14.1213203 3.87867966,14.625 4.5,14.625 L4.5,14.625 L13.5,14.625 C14.1213203,14.625 14.625,14.1213203 14.625,13.5 L14.625,13.5 L14.625,12.375 C14.625,11.7536797 15.1286797,11.25 15.75,11.25 C16.3713203,11.25 16.875,11.7536797 16.875,12.375 L16.875,12.375 L16.875,13.5 C16.875,15.363961 15.363961,16.875 13.5,16.875 L13.5,16.875 L4.5,16.875 C2.63603897,16.875 1.125,15.363961 1.125,13.5 L1.125,13.5 L1.125,4.5 C1.125,2.63603897 2.63603897,1.125 4.5,1.125 L4.5,1.125 Z M15.7638521,1.125 C16.218699,1.12552881 16.6284758,1.3998973 16.8022271,1.82025 C16.8590039,1.95643352 16.8884376,2.10245551 16.8888521,2.25 L16.8888521,2.25 L16.8888521,7.875 C16.8888521,8.49632034 16.3851724,9 15.7638521,9 C15.1425317,9 14.6388521,8.49632034 14.6388521,7.875 L14.6388521,7.875 L14.6388521,4.96575 L10.9342271,8.670375 C10.6517683,8.96282615 10.2334895,9.08011418 9.84015638,8.97715931 C9.44682327,8.87420443 9.13964769,8.56702886 9.03669282,8.17369573 C8.93373795,7.78036263 9.05102596,7.36208378 9.34347711,7.079625 L9.34347711,7.079625 L13.0481021,3.375 L10.1388521,3.375 C9.51753177,3.375 9.01385211,2.87132034 9.01385211,2.25 C9.01385211,1.62867966 9.51753177,1.125 10.1388521,1.125 L10.1388521,1.125 Z"/>
    <rect id="img-lockwise-n" width="330" height="2" x="16" y="0"/>
    <filter id="img-lockwise-m" width="100.2%" height="125%" x="-.1%" y="-12.5%" filterUnits="objectBoundingBox">
      <feOffset dy="-.5" in="SourceAlpha" result="shadowOffsetInner1"/>
      <feComposite in="shadowOffsetInner1" in2="SourceAlpha" k2="-1" k3="1" operator="arithmetic" result="shadowInnerInner1"/>
      <feColorMatrix in="shadowInnerInner1" values="0 0 0 0 0   0 0 0 0 0   0 0 0 0 0  0 0 0 0.25 0"/>
    </filter>
  </defs>
  <g fill="none" fill-rule="evenodd" transform="translate(8 6)">
    <use fill="#000" filter="url(#img-lockwise-a)" xlink:href="#img-lockwise-b"/>
    <use fill="#FFF" xlink:href="#img-lockwise-b"/>
    <g transform="translate(28 87)">
      <path fill="#FFF" stroke="#D5D5D5" stroke-width=".8" d="M4,-0.4 L343,-0.4 C345.430053,-0.4 347.4,1.5699471 347.4,4 L347.4,208.4 L-0.4,208.4 L-0.4,4 C-0.4,1.5699471 1.5699471,-0.4 4,-0.4 Z"/>
      <g transform="translate(0 84)">
        <rect width="347" height="124" fill="#FFF"/>
        <g transform="translate(305 22)">
          <rect width="18" height="18"/>
          <mask id="img-lockwise-d" fill="#fff">
            <use xlink:href="#img-lockwise-c"/>
          </mask>
          <use fill="#000" fill-rule="nonzero" xlink:href="#img-lockwise-c"/>
          <g fill="#4A4A4F" mask="url(#img-lockwise-d)">
            <rect width="18" height="18"/>
          </g>
        </g>
        <g transform="translate(16 75)">
          <text fill="#20123A" font-family="Helvetica" font-size="16" letter-spacing="-.178">
            <tspan x="0" y="29">•••••••••••••</tspan>
          </text>
          <g transform="translate(289 10)">
            <rect width="18" height="18"/>
            <mask id="img-lockwise-f" fill="#fff">
              <use xlink:href="#img-lockwise-e"/>
            </mask>
            <use fill="#000" fill-rule="nonzero" xlink:href="#img-lockwise-e"/>
            <g fill="#4A4A4F" mask="url(#img-lockwise-f)">
              <rect width="18" height="18"/>
            </g>
          </g>
          <g transform="translate(247 10)">
            <rect width="18" height="18"/>
            <mask id="img-lockwise-h" fill="#fff">
              <use xlink:href="#img-lockwise-g"/>
            </mask>
            <g fill="#4A4A4F" mask="url(#img-lockwise-h)">
              <rect width="18" height="18"/>
            </g>
          </g>
          <text fill="#5B5B66" font-family="Helvetica" font-size="13" letter-spacing="-.2">
            <tspan x="0" y="13">Password</tspan>
          </text>
        </g>
        <g transform="translate(1 12)">
          <use fill="#000" filter="url(#img-lockwise-i)" transform="translate(0 50)" xlink:href="#img-lockwise-j"/>
          <text fill="#20123A" font-family="Helvetica" font-size="17">
            <tspan x="15" y="31">asadotzler</tspan>
          </text>
          <text fill="#5B5B66" font-family="Helvetica" font-size="13" letter-spacing="-.2">
            <tspan x="15" y="13">Username</tspan>
          </text>
        </g>
      </g>
      <g transform="translate(0 22)">
        <polygon fill="#FFF" points="0 0 347 0 347 62 0 62"/>
        <g transform="translate(305 22)">
          <rect width="18" height="18"/>
          <mask id="img-lockwise-l" fill="#fff">
            <use xlink:href="#img-lockwise-k"/>
          </mask>
          <use fill="#000" fill-rule="nonzero" xlink:href="#img-lockwise-k"/>
          <g fill="#4A4A4F" mask="url(#img-lockwise-l)">
            <rect width="18" height="18"/>
          </g>
        </g>
        <text fill="#592ACB" font-family="Helvetica" font-size="17">
          <tspan x="16" y="43">https://twitter.com</tspan>
        </text>
        <text fill="#5B5B66" font-family="Helvetica" font-size="13" letter-spacing="-.2">
          <tspan x="16" y="25">Web Address</tspan>
        </text>
      </g>
      <use fill="#000" filter="url(#img-lockwise-m)" transform="translate(1 82)" xlink:href="#img-lockwise-n"/>
    </g>
    <path fill="#B933E1" d="M201.5,65 C206.746705,65 211,69.2532949 211,74.5 L211,78.5 C211,78.6678058 210.995649,78.8345954 210.987054,79.0002622 L212,79 C214.209139,79 216,80.790861 216,83 L216,95 C216,97.209139 214.209139,99 212,99 L191,99 C188.790861,99 187,97.209139 187,95 L187,83 C187,80.790861 188.790861,79 191,79 L192.012946,79.0002622 C192.004351,78.8345954 192,78.6678058 192,78.5 L192,74.5 C192,69.2532949 196.253295,65 201.5,65 Z M201.5,70 C199.085727,70 197.115511,71.9012365 197.004898,74.2881643 L197,74.5 L197,79 L206,79 L206,74.5 C206,72.0147186 203.985281,70 201.5,70 Z"/>
  </g>
</svg>
